<?xml version="1.0" encoding="UTF-8"?>
<svg width="700pt" height="700pt" version="1.1" viewBox="0 0 700 700" xmlns="http://www.w3.org/2000/svg">
 <g>
  <path d="m612.34 409.71c-1.3086-1.3086-2.707-2.5391-4.1641-3.6758l-88.293-68.637c-17.844-13.328-42.711-11.742-58.707 3.7344l-32.762 32.703c-7.0391 6.9609-17.809 8.4766-26.488 3.7344-61.227-37.109-112.56-88.461-149.67-149.69-4.8359-8.6602-3.3047-19.488 3.7344-26.469l32.762-32.777c15.828-15.848 17.434-40.992 3.7344-58.707 0 0-67.164-86.352-68.617-88.199-16.43-19.477-45.547-21.922-65-5.4961-0.52344 0.44922-1.0273 0.87891-1.5117 1.3477l-29.082 29.082c-5.3945 5.5625-5.2656 14.445 0.29688 19.84 5.5625 5.3945 14.449 5.2656 19.844-0.29687l28.746-28.879c7.1484-6.3672 18.125-5.7305 24.492 1.4375 0.035156 0.039063 0.09375 0.09375 0.12891 0.15234 1.5117 1.8672 68.582 88.164 68.582 88.164 5.0781 6.5508 4.5 15.848-1.3438 21.727l-32.742 32.797c-16.184 16.129-19.395 41.141-7.8398 60.836 39.406 65.055 93.969 119.62 159.02 159.04 19.77 11.219 44.574 8.0273 60.871-7.8398l32.723-32.777c5.918-5.6914 15.102-6.2734 21.691-1.3633l88.238 68.637c7.1875 5.582 8.4766 15.922 2.8945 23.109-0.41016 0.54297-0.85938 1.0469-1.3438 1.5117l-26.75 26.77c-30.762 30.277-72.238 47.207-115.4 47.113-22.027 0.14844-43.812-4.6289-63.766-13.98-118.12-56.113-213.28-151.28-269.38-269.4-16.035-34.234-18.965-73.172-8.2148-109.43 2.2969-7.3906-1.8086-15.23-9.1836-17.547-7.3906-2.2969-15.23 1.8281-17.547 9.2031-0.054687 0.16797-0.09375 0.33594-0.14844 0.52344-12.676 42.82-9.2031 88.797 9.7812 129.23 58.875 123.98 158.72 223.83 282.71 282.71 23.688 11.145 49.578 16.836 75.75 16.688 50.586 0.074219 99.156-19.805 135.2-55.309l26.73-26.77c17.359-17.359 17.379-45.492 0.015625-62.852z"/>
  <path d="m403.67 82.973c37.949 0.039063 74.332 15.195 101.1 42.094 26.918 26.785 42.074 63.188 42.113 101.16 0.039063 7.7109 6.2891 13.945 14 13.945 7.7266-0.039063 13.98-6.3281 13.945-14.055-0.33594-94.379-76.777-170.82-171.16-171.14-7.7266 0-14 6.2734-14 14 0 7.7266 6.2695 13.996 14 13.996z"/>
  <path d="m380.26 169.29c44.332 0.20703 80.23 36.102 80.434 80.434 0.039063 7.7109 6.2891 13.945 14 13.926 7.7266-0.039063 13.98-6.3281 13.945-14.055-0.29688-59.66-48.609-107.97-108.27-108.27l-0.11328-0.039063c-7.7266 0-14 6.2734-14 14 0 7.7266 6.2734 14 14 14z"/>
 </g>
</svg>
